<svg xmlns="http://www.w3.org/2000/svg" width="640" height="640" viewBox="0 0 640 640">
  <g id="Group_66" data-name="Group 66" transform="translate(-2770 -78.989)">
    <g id="Group_65" data-name="Group 65" transform="translate(3662 -363)">
      <path id="Path_104" data-name="Path 104" d="M3662,248.894l640,640H3662Z" transform="translate(-4554 193.095)" fill="#eeef01"/>
      <path id="Path_107" data-name="Path 107" d="M7.56,0V-77.76H38.394q7.884,0,12.933,3.159a20.019,20.019,0,0,1,7.506,8.073A22.441,22.441,0,0,1,61.29-56.376a18.924,18.924,0,0,1-3.051,10.908A14.9,14.9,0,0,1,49.95-39.42v-2.7A18.079,18.079,0,0,1,61.1-35.154a20.1,20.1,0,0,1,3.807,12.042,26.266,26.266,0,0,1-2.646,12.1,19.043,19.043,0,0,1-7.857,8.1A26.058,26.058,0,0,1,41.526,0ZM20.736-12.258h19.17a13.238,13.238,0,0,0,6.1-1.377,10.411,10.411,0,0,0,4.239-3.888,11.2,11.2,0,0,0,1.539-5.967,11.568,11.568,0,0,0-1.35-5.616,10.066,10.066,0,0,0-3.942-3.969,12.293,12.293,0,0,0-6.21-1.485H20.736Zm0-34.452h17.5a11.309,11.309,0,0,0,5.022-1.08,8.333,8.333,0,0,0,3.51-3.186,9.717,9.717,0,0,0,1.3-5.184,9.361,9.361,0,0,0-2.592-6.75,9.557,9.557,0,0,0-7.236-2.7h-17.5ZM75.708,0V-77.76h50.22v12.2H88.722v19.17h30.726v12.2H88.722V-12.2h37.206V0Zm81.864,0V-65.556H132.408v-12.2H195.75v12.2H170.586V0ZM196.83,0l24.516-77.76h19.062L264.924,0H251.532L229.284-69.768H232.2L210.222,0Zm13.662-16.848V-29h40.824v12.15Z" transform="translate(-862.373 663) rotate(45)"/>
      <path id="Path_106" data-name="Path 106" d="M8.076.36A8.479,8.479,0,0,1,4.662-.3a6.377,6.377,0,0,1-2.5-1.89A6.118,6.118,0,0,1,.924-5.112l3-.456A3.969,3.969,0,0,0,5.5-3.192a4.666,4.666,0,0,0,2.754.84A5.19,5.19,0,0,0,10-2.64a3.229,3.229,0,0,0,1.326-.84,1.924,1.924,0,0,0,.51-1.356,1.808,1.808,0,0,0-.12-.666,1.626,1.626,0,0,0-.354-.546,2.476,2.476,0,0,0-.6-.438,4.489,4.489,0,0,0-.846-.342L5.448-8.148A11.387,11.387,0,0,1,4.206-8.6a4.982,4.982,0,0,1-1.26-.78,3.817,3.817,0,0,1-.972-1.272A4.341,4.341,0,0,1,1.6-12.564a4.554,4.554,0,0,1,.846-2.8,5.1,5.1,0,0,1,2.28-1.7,8.475,8.475,0,0,1,3.186-.552,8.147,8.147,0,0,1,3.168.606A6.072,6.072,0,0,1,13.4-15.288a6.619,6.619,0,0,1,1.32,2.724l-3.108.54a3.449,3.449,0,0,0-.738-1.554,3.561,3.561,0,0,0-1.332-.978,4.531,4.531,0,0,0-1.674-.36,4.446,4.446,0,0,0-1.6.258,2.885,2.885,0,0,0-1.188.774,1.71,1.71,0,0,0-.45,1.176,1.441,1.441,0,0,0,.384,1.038,2.734,2.734,0,0,0,.954.636,9.38,9.38,0,0,0,1.158.39l3.1.864q.636.168,1.428.456a6.491,6.491,0,0,1,1.524.8,4.084,4.084,0,0,1,1.206,1.356,4.308,4.308,0,0,1,.474,2.136A4.813,4.813,0,0,1,14.3-2.67,4.991,4.991,0,0,1,12.792-.984,6.868,6.868,0,0,1,10.626.024,9.546,9.546,0,0,1,8.076.36ZM25.056,0a12.058,12.058,0,0,1-2.514.21,5.792,5.792,0,0,1-2.2-.456A3.013,3.013,0,0,1,18.864-1.6,3.865,3.865,0,0,1,18.4-3.312q-.024-.876-.024-1.98V-16.56h2.88v11.1q0,.78.018,1.368a1.931,1.931,0,0,0,.246.96,1.675,1.675,0,0,0,1.38.8,9.269,9.269,0,0,0,2.16-.1ZM16.02-10.692V-12.96h9.036v2.268ZM31.476.36A4.875,4.875,0,0,1,29.1-.174,3.652,3.652,0,0,1,27.63-1.6a3.93,3.93,0,0,1-.5-1.956,4.352,4.352,0,0,1,.312-1.686,3.371,3.371,0,0,1,.96-1.3,5.122,5.122,0,0,1,1.68-.894,15.843,15.843,0,0,1,1.83-.456q1.05-.2,2.28-.378t2.574-.378l-1.032.588a2.732,2.732,0,0,0-.6-1.98,2.783,2.783,0,0,0-2.064-.636,3.739,3.739,0,0,0-1.692.408,2.264,2.264,0,0,0-1.14,1.4L27.6-9.684a4.894,4.894,0,0,1,1.83-2.64,6.005,6.005,0,0,1,3.642-1,7.657,7.657,0,0,1,3.042.564,3.773,3.773,0,0,1,1.95,1.848,3.936,3.936,0,0,1,.42,1.4,15.548,15.548,0,0,1,.072,1.554V0H36.024V-2.808l.42.456A5.786,5.786,0,0,1,34.4-.294,5.925,5.925,0,0,1,31.476.36Zm.576-2.3a3.723,3.723,0,0,0,1.68-.348,3.344,3.344,0,0,0,1.11-.852,3,3,0,0,0,.558-.948,3.708,3.708,0,0,0,.258-1.266q.03-.714.03-1.158l.888.264q-1.308.2-2.244.36T32.724-5.6a11.043,11.043,0,0,0-1.188.306,3.676,3.676,0,0,0-.852.42,1.789,1.789,0,0,0-.534.552,1.4,1.4,0,0,0-.186.732,1.508,1.508,0,0,0,.24.846,1.646,1.646,0,0,0,.7.582A2.7,2.7,0,0,0,32.052-1.944ZM41.676,0V-12.96h2.556V-9.8l-.312-.408a4.622,4.622,0,0,1,.642-1.182,3.5,3.5,0,0,1,.966-.882,4.138,4.138,0,0,1,1.062-.51,5.042,5.042,0,0,1,1.194-.228,5.086,5.086,0,0,1,1.188.054v2.7a3.684,3.684,0,0,0-1.326-.108,3.06,3.06,0,0,0-1.35.42,2.958,2.958,0,0,0-.978.828,3.436,3.436,0,0,0-.558,1.146,5.117,5.117,0,0,0-.18,1.386V0ZM58.848,0a12.058,12.058,0,0,1-2.514.21,5.792,5.792,0,0,1-2.2-.456A3.013,3.013,0,0,1,52.656-1.6a3.865,3.865,0,0,1-.468-1.716q-.024-.876-.024-1.98V-16.56h2.88v11.1q0,.78.018,1.368a1.931,1.931,0,0,0,.246.96,1.675,1.675,0,0,0,1.38.8,9.269,9.269,0,0,0,2.16-.1ZM49.812-10.692V-12.96h9.036v2.268ZM72.672.36a5.4,5.4,0,0,1-3.18-.9A5.5,5.5,0,0,1,67.56-2.994a8.979,8.979,0,0,1-.648-3.486,9,9,0,0,1,.648-3.5,5.551,5.551,0,0,1,1.9-2.442,5.207,5.207,0,0,1,3.1-.894,5.637,5.637,0,0,1,3.186.894A5.959,5.959,0,0,1,77.844-9.99a7.978,7.978,0,0,1,.744,3.51,8.07,8.07,0,0,1-.732,3.492A5.957,5.957,0,0,1,75.792-.54,5.439,5.439,0,0,1,72.672.36ZM66.42,0V-17.28h2.916V-9.1h-.36V0Zm5.808-2.232a2.959,2.959,0,0,0,1.86-.564,3.319,3.319,0,0,0,1.086-1.53,6.223,6.223,0,0,0,.354-2.154,6.093,6.093,0,0,0-.36-2.142,3.326,3.326,0,0,0-1.116-1.536,3.1,3.1,0,0,0-1.92-.57,2.874,2.874,0,0,0-1.8.534,3.09,3.09,0,0,0-1.026,1.488,6.81,6.81,0,0,0-.33,2.226,6.823,6.823,0,0,0,.33,2.22A3.039,3.039,0,0,0,70.35-2.766,3.058,3.058,0,0,0,72.228-2.232Zm13.86,2.6a5.189,5.189,0,0,1-2.376-.48,4.2,4.2,0,0,1-1.488-1.224,5.328,5.328,0,0,1-.816-1.584,8.126,8.126,0,0,1-.342-1.59q-.078-.75-.078-1.218V-12.96h2.928v6.24A12.244,12.244,0,0,0,84-5.37a4.868,4.868,0,0,0,.39,1.44A2.778,2.778,0,0,0,85.3-2.8a2.715,2.715,0,0,0,1.638.444,3.433,3.433,0,0,0,1.092-.18,2.488,2.488,0,0,0,.978-.618,3.1,3.1,0,0,0,.7-1.206A6.067,6.067,0,0,0,89.976-6.3l1.716.732a6.872,6.872,0,0,1-.642,3A5.1,5.1,0,0,1,89.16-.426,5.59,5.59,0,0,1,86.088.372ZM90.324,0V-4.02h-.348v-8.94h2.9V0Zm7.62,5.76,2.5-6.852.048,2.016L94.836-12.96h3.012l4.008,10.272h-.768l3.9-10.272h2.892L100.656,5.76Zm11.964-20.688V-17.58H112.8v2.652Zm0,14.928V-12.96H112.8V0Zm15.456,0V-6.24A12.174,12.174,0,0,0,125.28-7.6a4.863,4.863,0,0,0-.39-1.434,2.778,2.778,0,0,0-.912-1.134,2.715,2.715,0,0,0-1.638-.444,3.433,3.433,0,0,0-1.092.18,2.488,2.488,0,0,0-.978.618,3.1,3.1,0,0,0-.7,1.2,6.056,6.056,0,0,0-.264,1.95l-1.716-.732a6.872,6.872,0,0,1,.642-3,5.1,5.1,0,0,1,1.89-2.142,5.59,5.59,0,0,1,3.072-.8,5.189,5.189,0,0,1,2.376.48,4.2,4.2,0,0,1,1.488,1.224,5.328,5.328,0,0,1,.816,1.584,8.126,8.126,0,0,1,.342,1.59q.078.75.078,1.218V0Zm-8.988,0V-12.96h2.58v4.02h.348V0ZM136.86,6.12a6.4,6.4,0,0,1-2.07-.336,5.866,5.866,0,0,1-1.782-.966,5.2,5.2,0,0,1-1.3-1.518l2.664-1.32a2.379,2.379,0,0,0,1.05,1.05,3.167,3.167,0,0,0,1.446.342,3.885,3.885,0,0,0,1.608-.318,2.449,2.449,0,0,0,1.1-.936,2.7,2.7,0,0,0,.366-1.542V-3.108h.36V-12.96h2.532V.624q0,.492-.042.942a7.1,7.1,0,0,1-.138.882,4.142,4.142,0,0,1-1.1,2.07,5.057,5.057,0,0,1-2.022,1.206A8.523,8.523,0,0,1,136.86,6.12ZM136.608.36a5.439,5.439,0,0,1-3.12-.9,5.957,5.957,0,0,1-2.064-2.448,8.071,8.071,0,0,1-.732-3.492,8.033,8.033,0,0,1,.738-3.51,5.9,5.9,0,0,1,2.094-2.436,5.666,5.666,0,0,1,3.192-.894,5.207,5.207,0,0,1,3.1.894,5.551,5.551,0,0,1,1.9,2.442,9,9,0,0,1,.648,3.5,8.979,8.979,0,0,1-.648,3.486A5.5,5.5,0,0,1,139.788-.54,5.4,5.4,0,0,1,136.608.36Zm.444-2.592a3.058,3.058,0,0,0,1.878-.534,3.039,3.039,0,0,0,1.044-1.494,6.823,6.823,0,0,0,.33-2.22,6.81,6.81,0,0,0-.33-2.226,3.09,3.09,0,0,0-1.026-1.488,2.874,2.874,0,0,0-1.8-.534,3.1,3.1,0,0,0-1.92.57,3.326,3.326,0,0,0-1.116,1.536,6.093,6.093,0,0,0-.36,2.142,6.223,6.223,0,0,0,.354,2.154,3.319,3.319,0,0,0,1.086,1.53A2.959,2.959,0,0,0,137.052-2.232ZM152.124,0V-13.164q0-.492.036-1.086a5.5,5.5,0,0,1,.2-1.182,2.62,2.62,0,0,1,.612-1.068,3.008,3.008,0,0,1,1.194-.846,4.288,4.288,0,0,1,1.266-.264q.624-.03,1.092-.03h1.62v2.352h-1.5a1.644,1.644,0,0,0-1.23.414,1.493,1.493,0,0,0-.4,1.086V0Zm-2.088-10.692V-12.96h8.112v2.268ZM160.068,0V-12.96h2.556V-9.8l-.312-.408a4.622,4.622,0,0,1,.642-1.182,3.5,3.5,0,0,1,.966-.882,4.137,4.137,0,0,1,1.062-.51,5.042,5.042,0,0,1,1.194-.228,5.086,5.086,0,0,1,1.188.054v2.7a3.684,3.684,0,0,0-1.326-.108,3.06,3.06,0,0,0-1.35.42,2.957,2.957,0,0,0-.978.828,3.436,3.436,0,0,0-.558,1.146,5.116,5.116,0,0,0-.18,1.386V0Zm15.06.36a6.446,6.446,0,0,1-3.4-.876,5.966,5.966,0,0,1-2.25-2.418,7.606,7.606,0,0,1-.8-3.546,7.512,7.512,0,0,1,.816-3.576,6.017,6.017,0,0,1,2.268-2.4,6.445,6.445,0,0,1,3.36-.864,6.47,6.47,0,0,1,3.408.876,6.007,6.007,0,0,1,2.256,2.418,7.559,7.559,0,0,1,.8,3.546,7.54,7.54,0,0,1-.81,3.558A6.007,6.007,0,0,1,178.524-.51,6.481,6.481,0,0,1,175.128.36Zm0-2.712A2.968,2.968,0,0,0,177.7-3.5a4.928,4.928,0,0,0,.84-2.976,4.85,4.85,0,0,0-.852-3.006,3.007,3.007,0,0,0-2.556-1.122,3.276,3.276,0,0,0-1.914.522,3.063,3.063,0,0,0-1.11,1.452,5.943,5.943,0,0,0-.36,2.154,4.826,4.826,0,0,0,.858,3.006A2.983,2.983,0,0,0,175.128-2.352ZM199.8,0V-7.872a3.045,3.045,0,0,0-.66-2.082,2.261,2.261,0,0,0-1.788-.75,2.454,2.454,0,0,0-1.248.318,2.257,2.257,0,0,0-.876.936,3.127,3.127,0,0,0-.324,1.47l-1.284-.756a4.424,4.424,0,0,1,.606-2.37,4.353,4.353,0,0,1,1.674-1.6,4.83,4.83,0,0,1,2.352-.576,4.175,4.175,0,0,1,3.294,1.29,4.915,4.915,0,0,1,1.146,3.39V0ZM184.212,0V-12.96h2.556v4.02h.36V0Zm7.812,0V-7.836a3.107,3.107,0,0,0-.66-2.112,2.266,2.266,0,0,0-1.8-.756,2.243,2.243,0,0,0-1.77.756,2.868,2.868,0,0,0-.666,1.968l-1.3-.864a4.221,4.221,0,0,1,.624-2.268,4.475,4.475,0,0,1,1.686-1.59,4.874,4.874,0,0,1,2.382-.582,4.465,4.465,0,0,1,2.43.618,3.83,3.83,0,0,1,1.464,1.68,5.689,5.689,0,0,1,.486,2.394V0Z" transform="translate(-598.123 843.641) rotate(45)"/>
      <path id="Path_105" data-name="Path 105" d="M10.725,0V-32.368L3.3-27.83v-7.315L10.725-39.6H17.49V0Zm24.09,0V-32.368L27.39-27.83v-7.315L34.815-39.6H41.58V0ZM50.93,0V-6.793h6.792V0ZM80.768.825a14.943,14.943,0,0,1-7.425-1.8,12.826,12.826,0,0,1-5.019-5.019,14.943,14.943,0,0,1-1.8-7.425V-26.18a14.943,14.943,0,0,1,1.8-7.425,12.826,12.826,0,0,1,5.019-5.019,14.943,14.943,0,0,1,7.425-1.8,14.865,14.865,0,0,1,7.411,1.8A12.947,12.947,0,0,1,93.2-33.6a14.852,14.852,0,0,1,1.815,7.425v12.76A14.852,14.852,0,0,1,93.2-5.995,12.947,12.947,0,0,1,88.179-.976,14.865,14.865,0,0,1,80.768.825Zm0-6.3a7.341,7.341,0,0,0,3.795-1,7.448,7.448,0,0,0,2.695-2.7,7.346,7.346,0,0,0,.99-3.781V-26.675a7.4,7.4,0,0,0-.99-3.809,7.448,7.448,0,0,0-2.695-2.7,7.341,7.341,0,0,0-3.795-1,7.341,7.341,0,0,0-3.795,1,7.448,7.448,0,0,0-2.7,2.7,7.4,7.4,0,0,0-.99,3.809v13.723a7.346,7.346,0,0,0,.99,3.781,7.448,7.448,0,0,0,2.7,2.7A7.341,7.341,0,0,0,80.768-5.472ZM115.5-40.37a13.439,13.439,0,0,1,6.971,1.829,13.326,13.326,0,0,1,4.909,5.074,15.007,15.007,0,0,1,1.815,7.452V-13.97a16.224,16.224,0,0,1-1.8,7.838,12.657,12.657,0,0,1-5.06,5.143A15.314,15.314,0,0,1,114.758.825a16.176,16.176,0,0,1-5.693-1,12.624,12.624,0,0,1-4.785-3.2l4.785-4.647a7.529,7.529,0,0,0,2.544,1.952,7.225,7.225,0,0,0,3.149.715A7.45,7.45,0,0,0,118.8-6.449,7.534,7.534,0,0,0,121.481-9.3a7.82,7.82,0,0,0,.949-3.767v-6.573l1.21,1.32a12.06,12.06,0,0,1-4.1,3.094,11.724,11.724,0,0,1-5,1.114,12.72,12.72,0,0,1-6.6-1.691,12.262,12.262,0,0,1-4.51-4.62,13.349,13.349,0,0,1-1.65-6.669,12.419,12.419,0,0,1,1.884-6.724,13.954,13.954,0,0,1,4.991-4.785A13.57,13.57,0,0,1,115.5-40.37Zm0,6.353a6.912,6.912,0,0,0-3.52.921,7.008,7.008,0,0,0-2.544,2.5,6.685,6.685,0,0,0-.949,3.506,6.833,6.833,0,0,0,.935,3.52,7.118,7.118,0,0,0,2.516,2.544,6.685,6.685,0,0,0,3.506.949,6.757,6.757,0,0,0,3.52-.949,7.083,7.083,0,0,0,2.53-2.544,6.833,6.833,0,0,0,.935-3.52,6.735,6.735,0,0,0-.921-3.451,7.041,7.041,0,0,0-2.5-2.53A6.685,6.685,0,0,0,115.5-34.017ZM137.72,0V-6.793h6.792V0Zm14.492-.055V-5.83l16.94-15.1a11.475,11.475,0,0,0,2.75-3.328,6.85,6.85,0,0,0,.77-3.025,7.225,7.225,0,0,0-.852-3.534,6.454,6.454,0,0,0-2.351-2.461,6.531,6.531,0,0,0-3.451-.908,6.944,6.944,0,0,0-3.644.949,6.749,6.749,0,0,0-2.461,2.516,6.389,6.389,0,0,0-.825,3.382h-6.82a13.112,13.112,0,0,1,1.774-6.9,12.122,12.122,0,0,1,4.9-4.565,15.432,15.432,0,0,1,7.219-1.622,13.734,13.734,0,0,1,6.82,1.691,12.4,12.4,0,0,1,4.758,4.675,13.413,13.413,0,0,1,1.732,6.861,12.863,12.863,0,0,1-.77,4.758,11.268,11.268,0,0,1-2.3,3.547q-1.526,1.623-3.781,3.6L160.6-4.648l-.6-1.65h19.47V-.055ZM192.94,0V-32.368l-7.425,4.538v-7.315L192.94-39.6h6.765V0Z" transform="translate(-644 885.315) rotate(45)"/>
    </g>
  </g>
</svg>
