<svg xmlns="http://www.w3.org/2000/svg" width="640" height="640" viewBox="0 0 640 640">
  <g id="Group_66" data-name="Group 66" transform="translate(-2770 -78.989)">
    <g id="Group_65" data-name="Group 65" transform="translate(3662 -363)">
      <path id="Path_104" data-name="Path 104" d="M3662,248.894l640,640H3662Z" transform="translate(-4554 193.095)" fill="#eeef01"/>
      <path id="Path_107" data-name="Path 107" d="M7.56,0V-77.76H38.394q7.884,0,12.933,3.159a20.019,20.019,0,0,1,7.506,8.073A22.441,22.441,0,0,1,61.29-56.376a18.924,18.924,0,0,1-3.051,10.908A14.9,14.9,0,0,1,49.95-39.42v-2.7A18.079,18.079,0,0,1,61.1-35.154a20.1,20.1,0,0,1,3.807,12.042,26.266,26.266,0,0,1-2.646,12.1,19.043,19.043,0,0,1-7.857,8.1A26.058,26.058,0,0,1,41.526,0ZM20.736-12.258h19.17a13.238,13.238,0,0,0,6.1-1.377,10.411,10.411,0,0,0,4.239-3.888,11.2,11.2,0,0,0,1.539-5.967,11.568,11.568,0,0,0-1.35-5.616,10.066,10.066,0,0,0-3.942-3.969,12.293,12.293,0,0,0-6.21-1.485H20.736Zm0-34.452h17.5a11.309,11.309,0,0,0,5.022-1.08,8.333,8.333,0,0,0,3.51-3.186,9.717,9.717,0,0,0,1.3-5.184,9.361,9.361,0,0,0-2.592-6.75,9.557,9.557,0,0,0-7.236-2.7h-17.5ZM75.708,0V-77.76h50.22v12.2H88.722v19.17h30.726v12.2H88.722V-12.2h37.206V0Zm81.864,0V-65.556H132.408v-12.2H195.75v12.2H170.586V0ZM196.83,0l24.516-77.76h19.062L264.924,0H251.532L229.284-69.768H232.2L210.222,0Zm13.662-16.848V-29h40.824v12.15Z" transform="translate(-838.373 685) rotate(45)"/>
      <path id="Path_119" data-name="Path 119" d="M8.076.36A8.479,8.479,0,0,1,4.662-.3a6.377,6.377,0,0,1-2.5-1.89A6.118,6.118,0,0,1,.924-5.112l3-.456A3.969,3.969,0,0,0,5.5-3.192a4.666,4.666,0,0,0,2.754.84A5.19,5.19,0,0,0,10-2.64a3.229,3.229,0,0,0,1.326-.84,1.924,1.924,0,0,0,.51-1.356,1.808,1.808,0,0,0-.12-.666,1.626,1.626,0,0,0-.354-.546,2.476,2.476,0,0,0-.6-.438,4.489,4.489,0,0,0-.846-.342L5.448-8.148A11.387,11.387,0,0,1,4.206-8.6a4.982,4.982,0,0,1-1.26-.78,3.817,3.817,0,0,1-.972-1.272A4.341,4.341,0,0,1,1.6-12.564a4.554,4.554,0,0,1,.846-2.8,5.1,5.1,0,0,1,2.28-1.7,8.475,8.475,0,0,1,3.186-.552,8.147,8.147,0,0,1,3.168.606A6.072,6.072,0,0,1,13.4-15.288a6.619,6.619,0,0,1,1.32,2.724l-3.108.54a3.449,3.449,0,0,0-.738-1.554,3.561,3.561,0,0,0-1.332-.978,4.531,4.531,0,0,0-1.674-.36,4.446,4.446,0,0,0-1.6.258,2.885,2.885,0,0,0-1.188.774,1.71,1.71,0,0,0-.45,1.176,1.441,1.441,0,0,0,.384,1.038,2.734,2.734,0,0,0,.954.636,9.38,9.38,0,0,0,1.158.39l3.1.864q.636.168,1.428.456a6.491,6.491,0,0,1,1.524.8,4.084,4.084,0,0,1,1.206,1.356,4.308,4.308,0,0,1,.474,2.136A4.813,4.813,0,0,1,14.3-2.67,4.991,4.991,0,0,1,12.792-.984,6.868,6.868,0,0,1,10.626.024,9.546,9.546,0,0,1,8.076.36ZM25.056,0a12.058,12.058,0,0,1-2.514.21,5.792,5.792,0,0,1-2.2-.456A3.013,3.013,0,0,1,18.864-1.6,3.865,3.865,0,0,1,18.4-3.312q-.024-.876-.024-1.98V-16.56h2.88v11.1q0,.78.018,1.368a1.931,1.931,0,0,0,.246.96,1.675,1.675,0,0,0,1.38.8,9.269,9.269,0,0,0,2.16-.1ZM16.02-10.692V-12.96h9.036v2.268ZM31.476.36A4.875,4.875,0,0,1,29.1-.174,3.652,3.652,0,0,1,27.63-1.6a3.93,3.93,0,0,1-.5-1.956,4.352,4.352,0,0,1,.312-1.686,3.371,3.371,0,0,1,.96-1.3,5.122,5.122,0,0,1,1.68-.894,15.843,15.843,0,0,1,1.83-.456q1.05-.2,2.28-.378t2.574-.378l-1.032.588a2.732,2.732,0,0,0-.6-1.98,2.783,2.783,0,0,0-2.064-.636,3.739,3.739,0,0,0-1.692.408,2.264,2.264,0,0,0-1.14,1.4L27.6-9.684a4.894,4.894,0,0,1,1.83-2.64,6.005,6.005,0,0,1,3.642-1,7.657,7.657,0,0,1,3.042.564,3.773,3.773,0,0,1,1.95,1.848,3.936,3.936,0,0,1,.42,1.4,15.548,15.548,0,0,1,.072,1.554V0H36.024V-2.808l.42.456A5.786,5.786,0,0,1,34.4-.294,5.925,5.925,0,0,1,31.476.36Zm.576-2.3a3.723,3.723,0,0,0,1.68-.348,3.344,3.344,0,0,0,1.11-.852,3,3,0,0,0,.558-.948,3.708,3.708,0,0,0,.258-1.266q.03-.714.03-1.158l.888.264q-1.308.2-2.244.36T32.724-5.6a11.043,11.043,0,0,0-1.188.306,3.676,3.676,0,0,0-.852.42,1.789,1.789,0,0,0-.534.552,1.4,1.4,0,0,0-.186.732,1.508,1.508,0,0,0,.24.846,1.646,1.646,0,0,0,.7.582A2.7,2.7,0,0,0,32.052-1.944ZM41.676,0V-12.96h2.556V-9.8l-.312-.408a4.622,4.622,0,0,1,.642-1.182,3.5,3.5,0,0,1,.966-.882,4.138,4.138,0,0,1,1.062-.51,5.042,5.042,0,0,1,1.194-.228,5.086,5.086,0,0,1,1.188.054v2.7a3.684,3.684,0,0,0-1.326-.108,3.06,3.06,0,0,0-1.35.42,2.958,2.958,0,0,0-.978.828,3.436,3.436,0,0,0-.558,1.146,5.117,5.117,0,0,0-.18,1.386V0ZM58.848,0a12.058,12.058,0,0,1-2.514.21,5.792,5.792,0,0,1-2.2-.456A3.013,3.013,0,0,1,52.656-1.6a3.865,3.865,0,0,1-.468-1.716q-.024-.876-.024-1.98V-16.56h2.88v11.1q0,.78.018,1.368a1.931,1.931,0,0,0,.246.96,1.675,1.675,0,0,0,1.38.8,9.269,9.269,0,0,0,2.16-.1ZM49.812-10.692V-12.96h9.036v2.268ZM72.672.36a5.4,5.4,0,0,1-3.18-.9A5.5,5.5,0,0,1,67.56-2.994a8.979,8.979,0,0,1-.648-3.486,9,9,0,0,1,.648-3.5,5.551,5.551,0,0,1,1.9-2.442,5.207,5.207,0,0,1,3.1-.894,5.637,5.637,0,0,1,3.186.894A5.959,5.959,0,0,1,77.844-9.99a7.978,7.978,0,0,1,.744,3.51,8.07,8.07,0,0,1-.732,3.492A5.957,5.957,0,0,1,75.792-.54,5.439,5.439,0,0,1,72.672.36ZM66.42,0V-17.28h2.916V-9.1h-.36V0Zm5.808-2.232a2.959,2.959,0,0,0,1.86-.564,3.319,3.319,0,0,0,1.086-1.53,6.223,6.223,0,0,0,.354-2.154,6.093,6.093,0,0,0-.36-2.142,3.326,3.326,0,0,0-1.116-1.536,3.1,3.1,0,0,0-1.92-.57,2.874,2.874,0,0,0-1.8.534,3.09,3.09,0,0,0-1.026,1.488,6.81,6.81,0,0,0-.33,2.226,6.823,6.823,0,0,0,.33,2.22A3.039,3.039,0,0,0,70.35-2.766,3.058,3.058,0,0,0,72.228-2.232Zm13.86,2.6a5.189,5.189,0,0,1-2.376-.48,4.2,4.2,0,0,1-1.488-1.224,5.328,5.328,0,0,1-.816-1.584,8.126,8.126,0,0,1-.342-1.59q-.078-.75-.078-1.218V-12.96h2.928v6.24A12.244,12.244,0,0,0,84-5.37a4.868,4.868,0,0,0,.39,1.44A2.778,2.778,0,0,0,85.3-2.8a2.715,2.715,0,0,0,1.638.444,3.433,3.433,0,0,0,1.092-.18,2.488,2.488,0,0,0,.978-.618,3.1,3.1,0,0,0,.7-1.206A6.067,6.067,0,0,0,89.976-6.3l1.716.732a6.872,6.872,0,0,1-.642,3A5.1,5.1,0,0,1,89.16-.426,5.59,5.59,0,0,1,86.088.372ZM90.324,0V-4.02h-.348v-8.94h2.9V0Zm7.62,5.76,2.5-6.852.048,2.016L94.836-12.96h3.012l4.008,10.272h-.768l3.9-10.272h2.892L100.656,5.76Zm11.964-20.688V-17.58H112.8v2.652Zm0,14.928V-12.96H112.8V0Zm15.456,0V-6.24A12.174,12.174,0,0,0,125.28-7.6a4.863,4.863,0,0,0-.39-1.434,2.778,2.778,0,0,0-.912-1.134,2.715,2.715,0,0,0-1.638-.444,3.433,3.433,0,0,0-1.092.18,2.488,2.488,0,0,0-.978.618,3.1,3.1,0,0,0-.7,1.2,6.056,6.056,0,0,0-.264,1.95l-1.716-.732a6.872,6.872,0,0,1,.642-3,5.1,5.1,0,0,1,1.89-2.142,5.59,5.59,0,0,1,3.072-.8,5.189,5.189,0,0,1,2.376.48,4.2,4.2,0,0,1,1.488,1.224,5.328,5.328,0,0,1,.816,1.584,8.126,8.126,0,0,1,.342,1.59q.078.75.078,1.218V0Zm-8.988,0V-12.96h2.58v4.02h.348V0ZM136.86,6.12a6.4,6.4,0,0,1-2.07-.336,5.866,5.866,0,0,1-1.782-.966,5.2,5.2,0,0,1-1.3-1.518l2.664-1.32a2.379,2.379,0,0,0,1.05,1.05,3.167,3.167,0,0,0,1.446.342,3.885,3.885,0,0,0,1.608-.318,2.449,2.449,0,0,0,1.1-.936,2.7,2.7,0,0,0,.366-1.542V-3.108h.36V-12.96h2.532V.624q0,.492-.042.942a7.1,7.1,0,0,1-.138.882,4.142,4.142,0,0,1-1.1,2.07,5.057,5.057,0,0,1-2.022,1.206A8.523,8.523,0,0,1,136.86,6.12ZM136.608.36a5.439,5.439,0,0,1-3.12-.9,5.957,5.957,0,0,1-2.064-2.448,8.071,8.071,0,0,1-.732-3.492,8.033,8.033,0,0,1,.738-3.51,5.9,5.9,0,0,1,2.094-2.436,5.666,5.666,0,0,1,3.192-.894,5.207,5.207,0,0,1,3.1.894,5.551,5.551,0,0,1,1.9,2.442,9,9,0,0,1,.648,3.5,8.979,8.979,0,0,1-.648,3.486A5.5,5.5,0,0,1,139.788-.54,5.4,5.4,0,0,1,136.608.36Zm.444-2.592a3.058,3.058,0,0,0,1.878-.534,3.039,3.039,0,0,0,1.044-1.494,6.823,6.823,0,0,0,.33-2.22,6.81,6.81,0,0,0-.33-2.226,3.09,3.09,0,0,0-1.026-1.488,2.874,2.874,0,0,0-1.8-.534,3.1,3.1,0,0,0-1.92.57,3.326,3.326,0,0,0-1.116,1.536,6.093,6.093,0,0,0-.36,2.142,6.223,6.223,0,0,0,.354,2.154,3.319,3.319,0,0,0,1.086,1.53A2.959,2.959,0,0,0,137.052-2.232ZM156,.36a6.521,6.521,0,0,1-3.9-1.08,4.479,4.479,0,0,1-1.824-3.036l2.952-.456A2.494,2.494,0,0,0,154.236-2.7a3.325,3.325,0,0,0,1.968.552,2.712,2.712,0,0,0,1.614-.414,1.326,1.326,0,0,0,.57-1.134,1.131,1.131,0,0,0-.21-.714,2.079,2.079,0,0,0-.918-.522q-.708-.252-2.172-.636A12.993,12.993,0,0,1,152.5-6.5a3.393,3.393,0,0,1-1.38-1.182,3.106,3.106,0,0,1-.42-1.656,3.565,3.565,0,0,1,.636-2.112,4.063,4.063,0,0,1,1.776-1.386,6.82,6.82,0,0,1,2.688-.486,7.179,7.179,0,0,1,2.682.468,4.655,4.655,0,0,1,1.89,1.332,3.993,3.993,0,0,1,.888,2.028l-2.952.528a1.866,1.866,0,0,0-.75-1.308,3.089,3.089,0,0,0-1.71-.54,2.884,2.884,0,0,0-1.644.306,1.136,1.136,0,0,0-.624,1.026.888.888,0,0,0,.252.636,2.7,2.7,0,0,0,1.014.528q.762.264,2.274.648a10.828,10.828,0,0,1,2.478.906,3.382,3.382,0,0,1,1.344,1.218,3.345,3.345,0,0,1,.414,1.716A3.69,3.69,0,0,1,159.93-.756,6.214,6.214,0,0,1,156,.36Zm13.716,0a6.446,6.446,0,0,1-3.4-.876,5.966,5.966,0,0,1-2.25-2.418,7.606,7.606,0,0,1-.8-3.546,7.512,7.512,0,0,1,.816-3.576,6.017,6.017,0,0,1,2.268-2.4,6.445,6.445,0,0,1,3.36-.864,6.47,6.47,0,0,1,3.408.876,6.007,6.007,0,0,1,2.256,2.418,7.559,7.559,0,0,1,.8,3.546,7.54,7.54,0,0,1-.81,3.558A6.007,6.007,0,0,1,173.112-.51,6.481,6.481,0,0,1,169.716.36Zm0-2.712A2.968,2.968,0,0,0,172.284-3.5a4.928,4.928,0,0,0,.84-2.976,4.85,4.85,0,0,0-.852-3.006,3.007,3.007,0,0,0-2.556-1.122,3.276,3.276,0,0,0-1.914.522,3.063,3.063,0,0,0-1.11,1.452,5.943,5.943,0,0,0-.36,2.154,4.826,4.826,0,0,0,.858,3.006A2.983,2.983,0,0,0,169.716-2.352ZM184.548.36a6.446,6.446,0,0,1-3.4-.876,5.966,5.966,0,0,1-2.25-2.418,7.606,7.606,0,0,1-.8-3.546,7.512,7.512,0,0,1,.816-3.576,6.017,6.017,0,0,1,2.268-2.4,6.445,6.445,0,0,1,3.36-.864,6.47,6.47,0,0,1,3.408.876,6.007,6.007,0,0,1,2.256,2.418,7.559,7.559,0,0,1,.8,3.546,7.54,7.54,0,0,1-.81,3.558A6.007,6.007,0,0,1,187.944-.51,6.481,6.481,0,0,1,184.548.36Zm0-2.712A2.968,2.968,0,0,0,187.116-3.5a4.928,4.928,0,0,0,.84-2.976,4.85,4.85,0,0,0-.852-3.006,3.007,3.007,0,0,0-2.556-1.122,3.276,3.276,0,0,0-1.914.522,3.063,3.063,0,0,0-1.11,1.452,5.943,5.943,0,0,0-.36,2.154,4.826,4.826,0,0,0,.858,3.006A2.983,2.983,0,0,0,184.548-2.352ZM202.62,0V-6.24a12.174,12.174,0,0,0-.084-1.356,4.864,4.864,0,0,0-.39-1.434,2.778,2.778,0,0,0-.912-1.134,2.715,2.715,0,0,0-1.638-.444,3.433,3.433,0,0,0-1.092.18,2.488,2.488,0,0,0-.978.618,3.1,3.1,0,0,0-.7,1.2,6.055,6.055,0,0,0-.264,1.95l-1.716-.732a6.872,6.872,0,0,1,.642-3,5.1,5.1,0,0,1,1.89-2.142,5.59,5.59,0,0,1,3.072-.8,5.189,5.189,0,0,1,2.376.48,4.2,4.2,0,0,1,1.488,1.224,5.328,5.328,0,0,1,.816,1.584,8.125,8.125,0,0,1,.342,1.59q.078.75.078,1.218V0Zm-8.988,0V-12.96h2.58v4.02h.348V0Z" transform="translate(-572.847 865) rotate(45)"/>
    </g>
  </g>
</svg>
